<?xml version="1.0" encoding="utf-8"?>
<!-- Generator: Adobe Illustrator 19.0.0, SVG Export Plug-In . SVG Version: 6.00 Build 0)  -->
<svg version="1.1" id="图层_1" xmlns="http://www.w3.org/2000/svg" xmlns:xlink="http://www.w3.org/1999/xlink" x="0px" y="0px"
	 viewBox="0 0 1024 1024" style="enable-background:new 0 0 1024 1024;" xml:space="preserve">
<style type="text/css">
	.st0{display:none;}
	.st1{display:none;}
	.st2{display:inline;}
</style>
<path id="XMLID_3_" class="st0" d="M834.9,876H189.1c-22.7,0-41.1-19.1-41.1-42.8c0-115.1,202.9-191,265.1-211.5
	c11.2-3.7,23.6-2.2,33.7,4.2L512,667l65.2-41.2c10.2-6.4,22.5-7.9,33.7-4.2C673.1,642.2,876,718.1,876,833.2
	C876,856.9,857.6,876,834.9,876z M512,600.5c-119.9,0-217.4-101.5-217.4-226.3C294.6,249.5,392.1,148,512,148
	s217.4,101.5,217.4,226.3C729.4,499,631.9,600.5,512,600.5z"/>
<path id="XMLID_4_" class="st0" d="M800,608c0,0-70.5-48-288-48s-288,48-288,48l-96-48c0,0,3.5-432,384-432c380.4,0,384,432,384,432
	L800,608z M512,224c-228.5,0-284.4,229.2-287.7,243.9c2.4-7.7,27.2-46.6,287.7-46.6c260.7,0,285.4,39,287.7,46.6
	C796.4,453.5,740.7,224,512,224z M800,704c0,0-40.8,192-288,192c-247.3,0-288-192-288-192s48-48,288-48S800,704,800,704z"/>
<g id="XMLID_8_" class="st1">
	<polygon id="XMLID_11_" class="st2" points="290.8,649 207.9,649 207.9,540.7 128,524.7 128,871.9 207.9,843.3 207.9,722.2 
		336.9,722.2 407.5,623.5 315.3,572.5 	"/>
	<polygon id="XMLID_10_" class="st2" points="708.6,671.3 896,547 312.3,152.1 244.7,152.1 152.5,301.8 152.5,352.7 665.5,674.5 
		708.4,674.5 	"/>
	<path id="XMLID_9_" class="st2" d="M638,696.8L195.6,400.5l-46.1,51l512.9,321.7h46.2l24.6-25.5l24.6-73.3c0,0-67.6,51-70.6,51
		c-15.6-11-32.1-20.6-49.3-28.7L638,696.8z"/>
</g>
<path id="XMLID_13_" d="M875.9,387.3H804c-3.3,0.1-6.5,1-9.3,2.6l-32.5-97.7c-10.4-55.6-49.5-82.3-97.6-82.3H360
	c-55.2,0-88.7,36-97.6,82.3l-32.5,98c-3-1.8-6.5-2.8-10-2.8H148c-5.3,0-10.4,2.1-14.1,5.8c-3.7,3.7-5.9,8.9-5.9,14.2v17.4
	c0,11.1,8.9,20,20,20l27.2,4.6c-9.2,18-13.8,38-13.5,58.4l-10.1,115.3c0,3.3,0.2,6.8,0.7,10.1c-0.4,2.2-0.7,4.4-0.7,6.6v138.7
	c0,19.7,15.9,35.8,35.8,35.8H242c19.8,0,35.8-16,35.8-35.8v-44.6h469.1v44.6c0,19.7,16,35.8,35.8,35.8h54.5
	c9.5,0,18.5-3.7,25.3-10.5c6.7-6.7,10.5-15.8,10.5-25.3V639.7c0-2.2-0.2-4.4-0.7-6.5c0.4-3.4,0.7-6.8,0.7-10.2l-10-115.3
	c0-22.4-4.9-41.7-13.6-58.6l26.7-4.6c5.3,0,10.4-2.1,14.1-5.9c3.7-3.7,5.9-8.9,5.9-14.1v-17.4c0.1-5.3-2-10.4-5.8-14.1
	C886.3,389.4,881.3,387.3,875.9,387.3L875.9,387.3z M723.2,668.2c-19.3,0-37.2-10.3-46.9-27.1c-9.7-16.7-9.7-37.4,0-54.1
	c9.7-16.7,27.6-27.1,46.9-27.1c29.9,0,54.1,24.2,54.1,54.1C777.3,643.9,753.1,668.2,723.2,668.2L723.2,668.2z M607.4,628.2
	c-0.1,4.3-1.8,8.4-4.8,11.4c-3,3-7.2,4.7-11.5,4.6H439.4c-8.9,0-16-7.2-16-16.1v-45.3c0-8.9,7.2-16,16-16h151.9
	c8.9,0,16.2,7.2,16.2,16L607.4,628.2L607.4,628.2z M305,668.2c-19.3,0-37.2-10.3-46.9-27.1c-9.7-16.7-9.7-37.4,0-54.1
	c9.7-16.7,27.6-27.1,46.9-27.1c29.9,0,54.1,24.2,54.1,54.1C359.2,643.9,334.9,668.2,305,668.2L305,668.2z M288.3,366.7l23.8-63.4
	l0.3-1.5c2.4-12.8,7.6-15.1,15.4-25h372.8c7.9,10.1,12.8,12.8,15,24.8l24.2,65.1l8.8,35.3c-2,25.9-33.1,46.2-58.9,46.2H338.4
	c-25.8,0-56.9-20.5-58.9-46.2L288.3,366.7z"/>
</svg>
