<?xml version="1.0" encoding="utf-8"?>
<!-- Generator: Adobe Illustrator 19.0.0, SVG Export Plug-In . SVG Version: 6.00 Build 0)  -->
<svg version="1.1" id="图层_1" xmlns="http://www.w3.org/2000/svg" xmlns:xlink="http://www.w3.org/1999/xlink" x="0px" y="0px"
	 viewBox="0 0 1024 1024" style="enable-background:new 0 0 1024 1024;" xml:space="preserve">
<style type="text/css">
	.st0{display:none;}
	.st1{display:inline;}
	.st3{display:inline;}
</style>
<g id="XMLID_34_" class="st0">
	<g class="st1">
		<polygon id="XMLID_42_" points="176,176 320,176 320,128 128,128 128,320 176,320 		"/>
		<polygon id="XMLID_41_" points="848,128 704,128 704,176 848,176 848,320 896,320 896,128 		"/>
		<polygon id="XMLID_40_" points="848,848 704,848 704,896 896,896 896,704 848,704 		"/>
		<polygon id="XMLID_39_" points="176,704 128,704 128,896 320,896 320,848 176,848 		"/>
		<path id="XMLID_38_" d="M176,704"/>
	</g>
	<g class="st1">
		<path d="M440.1,248c0,39.7,32.2,71.9,72,71.9c39.7,0,71.9-32.2,71.9-71.9c0-39.7-32.2-72-71.9-72C472.3,176,440.1,208.2,440.1,248
			L440.1,248z M763.8,344.2H260.2c-19.9,0-36,16.1-36,36c0,19.9,16.1,36,36,36h147.6c8.4,1.5,19.8,5.8,25.8,21.4
			c7,18.1,3.5,50.4-0.8,77.6l-5.6,32.1c0,0.1-0.1,0.3-0.1,0.4l-45.5,258.2c-3.4,19.6,9.6,38.2,29.2,41.7c19.6,3.4,38-9.6,41.4-29.2
			l31.5-179.8v0.2c0,0,9.4-48.7,27.7-48.7h1.7c18.7,0,27.7,48.7,27.7,48.7v-0.2L572,818.3c3.5,19.6,22,32.6,41.5,29.2
			c19.6-3.5,32.6-22.1,29.1-41.7l-45.6-258.3v-0.1c0-0.1-0.1-0.3-0.1-0.5l-5.7-32.1c-4.4-27.1-7.8-59.4-0.8-77.5
			c6-15.6,17.5-19.9,25.8-21.4h147.6c19.9,0,36-16.1,36-36C799.8,360.2,783.7,344.2,763.8,344.2L763.8,344.2z M763.8,344.2"/>
	</g>
</g>
<g id="XMLID_35_" class="st0">
	<path class="st1" d="M784.9,411h-54c-2.4,0.1-4.9,0.7-7,1.9l-24.4-73.3c-7.8-41.7-37.1-61.8-73.2-61.8H398
		c-41.4,0-66.5,27-73.2,61.7l-24.4,73.5c-2.3-1.3-4.9-2.1-7.5-2.1H239c-4,0-7.8,1.6-10.6,4.4c-2.8,2.8-4.4,6.6-4.4,10.7v13
		c0,8.3,6.7,15,15,15l20.4,3.5c-6.9,13.5-10.4,28.5-10.1,43.8l-7.6,101.4c0,2.5,0.2,5.1,0.5,7.6c-0.3,1.6-0.5,3.3-0.5,4.9v104
		c0,14.8,11.9,26.8,26.8,26.8h40.9c14.8,0,26.8-12,26.8-26.8v-33.5h351.8v33.5c0,14.8,12,26.8,26.8,26.8h40.9c7.1,0,13.9-2.8,19-7.9
		c5-5,7.9-11.8,7.9-19v-104c0-1.6-0.2-3.3-0.5-4.9c0.3-2.6,0.5-5.1,0.5-7.6l-7.5-101.4c0-16.8-3.7-31.3-10.2-44l20-3.4
		c4,0,7.8-1.6,10.6-4.4c2.8-2.8,4.4-6.6,4.4-10.6v-13c0.1-4-1.5-7.8-4.3-10.6C792.7,412.6,789,411,784.9,411L784.9,411z
		 M670.4,636.6c-14.5,0-27.9-7.7-35.2-20.3c-7.3-12.6-7.3-28,0-40.6c7.3-12.6,20.7-20.3,35.2-20.3c22.4,0,40.6,18.2,40.6,40.6
		C711,618.4,692.8,636.6,670.4,636.6L670.4,636.6z M583.6,606.6c-0.1,3.2-1.3,6.3-3.6,8.5c-2.3,2.3-5.4,3.5-8.6,3.5H457.6
		c-6.6,0-12-5.4-12-12.1v-34c0-6.6,5.4-12,12-12h113.9c6.7,0,12.1,5.4,12.1,12L583.6,606.6L583.6,606.6z M356.8,636.6
		c-14.5,0-27.9-7.7-35.2-20.3c-7.3-12.6-7.3-28,0-40.6c7.3-12.6,20.7-20.3,35.2-20.3c22.4,0,40.6,18.2,40.6,40.6
		C397.4,618.4,379.2,636.6,356.8,636.6L356.8,636.6z M344.2,395.6l17.9-47.6l0.2-1.1c1.8-9.6,5.7-11.3,11.6-18.7h279.6
		c5.9,7.6,9.6,9.6,11.2,18.6l18.2,48.8l6.6,26.5c-1.5,19.4-24.8,34.6-44.2,34.6H381.8c-19.4,0-42.7-15.4-44.2-34.6L344.2,395.6z
		 M344.2,395.6"/>
	<g class="st1">
		<polygon id="XMLID_10_" points="176,176 320,176 320,128 128,128 128,320 176,320 		"/>
		<polygon id="XMLID_9_" points="848,128 704,128 704,176 848,176 848,320 896,320 896,128 		"/>
		<polygon id="XMLID_8_" points="848,848 704,848 704,896 896,896 896,704 848,704 		"/>
		<polygon id="XMLID_7_" points="176,704 128,704 128,896 320,896 320,848 176,848 		"/>
		<path id="XMLID_6_" d="M176,704"/>
	</g>
</g>
<g id="XMLID_33_" class="st0">
	<g class="st1">
		<path id="XMLID_320_" d="M512,570.4c82.3,0,149.3-66.9,149.3-149.2c0-82.3-67-149.2-149.3-149.2s-149.3,66.9-149.3,149.2
			C362.7,503.4,429.7,570.4,512,570.4z"/>
		<path id="XMLID_317_" d="M579.9,584.3c-7.8-2.5-16.2-1.5-23.2,2.8L512,614.2l-44.8-27.1c-7-4.2-15.4-5.2-23.2-2.8
			C401.4,597.8,262,647.9,262,723.8c0,15.6,12.6,28.2,28.2,28.2h443.5c15.6,0,28.2-12.6,28.2-28.2
			C762,647.9,622.6,597.8,579.9,584.3z"/>
	</g>
	<g class="st1">
		<polygon id="XMLID_5_" points="176,176 320,176 320,128 128,128 128,320 176,320 		"/>
		<polygon id="XMLID_4_" points="848,128 704,128 704,176 848,176 848,320 896,320 896,128 		"/>
		<polygon id="XMLID_3_" points="848,848 704,848 704,896 896,896 896,704 848,704 		"/>
		<polygon id="XMLID_2_" points="176,704 128,704 128,896 320,896 320,848 176,848 		"/>
		<path id="XMLID_1_" d="M176,704"/>
	</g>
</g>
<g id="XMLID_23_" class="st0">
	<path id="XMLID_12_" class="st1" d="M512,506.8c-2.9,0-5.3,2.4-5.3,5.3s2.4,5.3,5.3,5.3s5.3-2.4,5.3-5.3S514.9,506.8,512,506.8
		L512,506.8z M515.4,514.8l-6.2-6.2c0.8-0.7,1.7-1,2.8-1c2.5,0,4.5,2,4.5,4.5C516.5,513.1,516.1,514.1,515.4,514.8L515.4,514.8z
		 M512,516.5c-2.5,0-4.5-2-4.5-4.5c0-1.1,0.4-2.1,1-2.8l6.3,6.3C514.1,516.1,513.1,516.5,512,516.5L512,516.5z"/>
	<path id="XMLID_22_" class="st1" d="M515.5,519v-0.9h2.6v-2.6h0.9v3.5H515.5z M518.1,505.9h-2.6V505h2.6h0.9v3.5h-0.9V505.9z
		 M515,511.4l-0.2,0c0.1,0.1,0.1,0.3,0.1,0.5l0.1,1.1c0,0,0,0.1,0,0.1c0,0,0,0,0,0.1v1.2c0,0.1,0,0.2-0.1,0.2
		c-0.1,0.1-0.1,0.1-0.2,0.1h-0.5c-0.2,0-0.3-0.1-0.3-0.3v-0.4H510v0.4c0,0.2-0.1,0.3-0.3,0.3h-0.5c-0.2,0-0.3-0.1-0.3-0.3v-1.2
		c0,0,0,0,0-0.1c0,0,0-0.1,0-0.1l0.1-1.1c0-0.2,0-0.3,0.1-0.5l-0.2,0c-0.1,0-0.2-0.1-0.2-0.2V511c0,0,0-0.1,0-0.1c0,0,0.1,0,0.1,0
		h0.6c0,0,0.1,0,0.1,0l0.3-0.8c0.1-0.4,0.4-0.7,0.8-0.7h2.6c0.4,0,0.7,0.2,0.8,0.7l0.3,0.8c0,0,0.1,0,0.1,0h0.6c0,0,0.1,0,0.1,0
		c0,0,0,0.1,0,0.1v0.1c0,0,0,0.1,0,0.1C515.1,511.3,515.1,511.4,515,511.4z M511.2,513.1c0,0.1,0.1,0.1,0.1,0.1h1.3c0,0,0.1,0,0.1,0
		c0,0,0-0.1,0-0.1h0v-0.4c0-0.1-0.1-0.1-0.1-0.1h-1.3c-0.1,0-0.1,0.1-0.1,0.1V513.1z M509.8,512.7c-0.1,0.1-0.1,0.3,0,0.5
		c0.1,0.1,0.2,0.2,0.4,0.2c0.3,0,0.5-0.2,0.5-0.5c0-0.3-0.2-0.5-0.5-0.5C510.1,512.5,509.9,512.6,509.8,512.7z M513.9,510.7
		l-0.2-0.5c0-0.1-0.1-0.1-0.1-0.2h-3.1c-0.1,0.1-0.1,0.1-0.1,0.2l0,0l-0.2,0.5L510,511c0,0.2,0.3,0.4,0.5,0.4h3
		c0.2,0,0.5-0.2,0.5-0.4L513.9,510.7z M513.7,512.5c-0.2,0-0.3,0.1-0.4,0.2c-0.1,0.1-0.1,0.3,0,0.5c0.1,0.1,0.2,0.2,0.4,0.2
		c0.3,0,0.5-0.2,0.5-0.5C514.2,512.7,514,512.5,513.7,512.5z M505,515.5h0.9v2.6h2.6v0.9H505V515.5z M505.9,508.5H505V505h3.5v0.9
		h-2.6V508.5z"/>
</g>
<g id="XMLID_43_">
	<path id="XMLID_428_" class="st2" d="M896,162.9l0,174.6c0,19.3-15.6,34.9-34.9,34.9l0,0c-19.3,0-34.9-15.6-34.9-34.9v-90.2
		l-202.8,203c-6.8,6.8-15.8,10.2-24.7,10.2c-8.9,0-17.9-3.4-24.7-10.2c-13.6-13.6-13.6-35.7,0-49.4l202.9-203.1h-90.2
		c-19.3,0-34.9-15.6-34.9-34.9c0-19.3,15.6-34.9,34.9-34.9h174.4c9.3,0,18.1,3.7,24.7,10.2C892.3,144.8,896,153.7,896,162.9z"/>
	<path id="XMLID_427_" class="st2" d="M861.1,651.6c-19.3,0-34.9,15.6-34.9,34.9v90.2L626.8,579c-13.6-13.6-36.7-13.7-50.3,0
		c-13.6,13.6-14.1,35.7-0.5,49.4l197.4,197.8h-90.3H683c-19.3,0-34.9,15.6-34.9,34.9c0,19.3,15.6,34.9,34.9,34.9l174.4,0l0,0
		c9.3,0,20-3.7,26.6-10.2c6.5-6.5,12.1-15.4,12.1-24.7V686.5C896,667.2,880.4,651.6,861.1,651.6z"/>
	<path id="XMLID_424_" class="st2" d="M397.2,577.5L197.8,776.8v-90.3c0-19.3-15.3-34.9-34.6-34.9h0.1c-19.3,0-34.8,15.6-34.8,34.9
		l0,174.6c0,9.3,3.7,18.1,10.2,24.7c6.5,6.5,15.4,10.2,24.7,10.2h174.4c19.3,0,34.9-15.6,34.9-34.9c0-19.3-15.6-34.9-34.9-34.9
		h-90.2l199.1-199.3c13.6-13.6,13.5-35.7-0.2-49.4C433.1,563.9,410.8,563.9,397.2,577.5z"/>
	<path id="XMLID_381_" class="st2" d="M247.1,201l90.2,0h0c19.3,0,34.9-15.6,34.9-34.9s-15.6-34.9-34.9-34.9l-174.4,0h0
		c-9.3,0-18.1,3.7-24.7,10.2c-6.5,6.5-10.2,15.4-10.2,24.7l0,174.6c0,19.3,15.6,34.9,34.9,34.9c19.3,0,34.9-15.6,34.9-34.9v-90.2
		L399,451.8c6.8,6.8,15.8,10.2,24.7,10.2c8.9,0,17.9-3.4,24.7-10.2c13.6-13.6,13.7-35.7,0-49.4L247.1,201z"/>
</g>
<g id="XMLID_44_" class="st0">
	<path id="XMLID_357_" class="st3" d="M882,836.4c13.6,13.6,13.6,35.7-0.1,49.4c-6.8,6.8-15.9,10.2-24.8,10.2
		c-8.9,0-18.1-3.4-25-10.2L642.8,696.9v90.2c0,19.3-15.6,34.9-34.9,34.9c-19.3,0-34.9-15.6-34.9-34.9V612.6
		c0-9.3,4.2-18.1,10.8-24.7c6.5-6.5,15.9-10.2,25.2-10.2h0l174.5,0c19.3,0,34.9,15.6,34.9,34.9c0,19.3-15.6,34.9-34.9,34.9h0
		l-90.2,0L882,836.4z"/>
	<path id="XMLID_309_" class="st3" d="M607.4,451h174.5c19.3,0,34.9-15.6,34.9-34.9c0-19.3-15.6-34.9-34.9-34.9h-90.2l194.1-193.8
		c13.6-13.6,13.6-35.5,0-49.2c-13.6-13.6-35.5-13.5-49.1,0.1L642.8,332.5v-90.2c0-19.3-15.8-35.7-35.1-35.7h-0.1
		c-19.3,0-35,16-35,35.3l0,174.7c0,9.3,3.7,17.9,10.2,24.4C589.3,447.6,598.2,451,607.4,451z"/>
	<path id="XMLID_308_" class="st3" d="M415.3,208.9c-19.3,0-34.4,15.6-34.4,34.9V334L188,141.5c-13.6-13.6-36-13.7-49.7,0
		c-13.6,13.6-13.8,34.6-0.2,48.2l192.4,191.5h-89.2v1.1c-17.5,0-35.4,16.2-35.4,35.5c0,19.3,15.9,35.2,35.2,35.2l174.8,0.2v0.1
		c8.7,0,17.6-3.6,24.1-10.2c6.5-6.5,10-15.4,10-24.7l0.1-174.5C450.1,224.5,434.6,208.9,415.3,208.9z"/>
	<path id="XMLID_306_" class="st3" d="M413.3,573.2H238.8c-19.3,0-34.9,15.6-34.9,34.9c0,19.3,15.6,34.9,34.9,34.9H329L138.6,834.9
		c-13.6,13.6-13.6,36.5,0,50.1c6.8,6.8,15.7,10.6,24.7,10.6c8.9,0,19.2-3.2,26-10L381,695.4v90.2c0,19.3,14.3,31.9,33.6,31.9h-0.7
		c19.3,0,34.6-14.1,34.6-33.4l-0.1-173.8c0-9.3-3.8-19.3-10.3-25.8C431.5,578,422.5,573.2,413.3,573.2z"/>
</g>
</svg>
