<?xml version="1.0" encoding="utf-8"?>
<!-- Generator: Adobe Illustrator 19.0.0, SVG Export Plug-In . SVG Version: 6.00 Build 0)  -->
<svg version="1.1" id="图层_1" xmlns="http://www.w3.org/2000/svg" xmlns:xlink="http://www.w3.org/1999/xlink" x="0px" y="0px"
	 viewBox="0 0 1024 1024" style="enable-background:new 0 0 1024 1024;" xml:space="preserve">
<style type="text/css">
	.st0{display:none;}
	.st1{display:inline;}
</style>
<g id="XMLID_34_">
	<g>
		<polygon id="XMLID_42_" points="176,176 320,176 320,128 128,128 128,320 176,320 		"/>
		<polygon id="XMLID_41_" points="848,128 704,128 704,176 848,176 848,320 896,320 896,128 		"/>
		<polygon id="XMLID_40_" points="848,848 704,848 704,896 896,896 896,704 848,704 		"/>
		<polygon id="XMLID_39_" points="176,704 128,704 128,896 320,896 320,848 176,848 		"/>
		<path id="XMLID_38_" d="M176,704"/>
	</g>
	<g>
		<path d="M440.1,248c0,39.7,32.2,71.9,72,71.9c39.7,0,71.9-32.2,71.9-71.9c0-39.7-32.2-72-71.9-72C472.3,176,440.1,208.2,440.1,248
			L440.1,248z M763.8,344.2H260.2c-19.9,0-36,16.1-36,36c0,19.9,16.1,36,36,36h147.6c8.4,1.5,19.8,5.8,25.8,21.4
			c7,18.1,3.5,50.4-0.8,77.6l-5.6,32.1c0,0.1-0.1,0.3-0.1,0.4l-45.5,258.2c-3.4,19.6,9.6,38.2,29.2,41.7c19.6,3.4,38-9.6,41.4-29.2
			l31.5-179.8v0.2c0,0,9.4-48.7,27.7-48.7h1.7c18.7,0,27.7,48.7,27.7,48.7v-0.2L572,818.3c3.5,19.6,22,32.6,41.5,29.2
			c19.6-3.5,32.6-22.1,29.1-41.7l-45.6-258.3v-0.1c0-0.1-0.1-0.3-0.1-0.5l-5.7-32.1c-4.4-27.1-7.8-59.4-0.8-77.5
			c6-15.6,17.5-19.9,25.8-21.4h147.6c19.9,0,36-16.1,36-36C799.8,360.2,783.7,344.2,763.8,344.2L763.8,344.2z M763.8,344.2"/>
	</g>
</g>
<g id="XMLID_35_" class="st0">
	<path class="st1" d="M784.9,411h-54c-2.4,0.1-4.9,0.7-7,1.9l-24.4-73.3c-7.8-41.7-37.1-61.8-73.2-61.8H398
		c-41.4,0-66.5,27-73.2,61.7l-24.4,73.5c-2.3-1.3-4.9-2.1-7.5-2.1H239c-4,0-7.8,1.6-10.6,4.4c-2.8,2.8-4.4,6.6-4.4,10.7v13
		c0,8.3,6.7,15,15,15l20.4,3.5c-6.9,13.5-10.4,28.5-10.1,43.8l-7.6,101.4c0,2.5,0.2,5.1,0.5,7.6c-0.3,1.6-0.5,3.3-0.5,4.9v104
		c0,14.8,11.9,26.8,26.8,26.8h40.9c14.8,0,26.8-12,26.8-26.8v-33.5h351.8v33.5c0,14.8,12,26.8,26.8,26.8h40.9c7.1,0,13.9-2.8,19-7.9
		c5-5,7.9-11.8,7.9-19v-104c0-1.6-0.2-3.3-0.5-4.9c0.3-2.6,0.5-5.1,0.5-7.6l-7.5-101.4c0-16.8-3.7-31.3-10.2-44l20-3.4
		c4,0,7.8-1.6,10.6-4.4c2.8-2.8,4.4-6.6,4.4-10.6v-13c0.1-4-1.5-7.8-4.3-10.6C792.7,412.6,789,411,784.9,411L784.9,411z
		 M670.4,636.6c-14.5,0-27.9-7.7-35.2-20.3c-7.3-12.6-7.3-28,0-40.6c7.3-12.6,20.7-20.3,35.2-20.3c22.4,0,40.6,18.2,40.6,40.6
		C711,618.4,692.8,636.6,670.4,636.6L670.4,636.6z M583.6,606.6c-0.1,3.2-1.3,6.3-3.6,8.5c-2.3,2.3-5.4,3.5-8.6,3.5H457.6
		c-6.6,0-12-5.4-12-12.1v-34c0-6.6,5.4-12,12-12h113.9c6.7,0,12.1,5.4,12.1,12L583.6,606.6L583.6,606.6z M356.8,636.6
		c-14.5,0-27.9-7.7-35.2-20.3c-7.3-12.6-7.3-28,0-40.6c7.3-12.6,20.7-20.3,35.2-20.3c22.4,0,40.6,18.2,40.6,40.6
		C397.4,618.4,379.2,636.6,356.8,636.6L356.8,636.6z M344.2,395.6l17.9-47.6l0.2-1.1c1.8-9.6,5.7-11.3,11.6-18.7h279.6
		c5.9,7.6,9.6,9.6,11.2,18.6l18.2,48.8l6.6,26.5c-1.5,19.4-24.8,34.6-44.2,34.6H381.8c-19.4,0-42.7-15.4-44.2-34.6L344.2,395.6z
		 M344.2,395.6"/>
	<g class="st1">
		<polygon id="XMLID_10_" points="176,176 320,176 320,128 128,128 128,320 176,320 		"/>
		<polygon id="XMLID_9_" points="848,128 704,128 704,176 848,176 848,320 896,320 896,128 		"/>
		<polygon id="XMLID_8_" points="848,848 704,848 704,896 896,896 896,704 848,704 		"/>
		<polygon id="XMLID_7_" points="176,704 128,704 128,896 320,896 320,848 176,848 		"/>
		<path id="XMLID_6_" d="M176,704"/>
	</g>
</g>
<g id="XMLID_33_" class="st0">
	<g class="st1">
		<path id="XMLID_320_" d="M512,570.4c82.3,0,149.3-66.9,149.3-149.2c0-82.3-67-149.2-149.3-149.2s-149.3,66.9-149.3,149.2
			C362.7,503.4,429.7,570.4,512,570.4z"/>
		<path id="XMLID_317_" d="M579.9,584.3c-7.8-2.5-16.2-1.5-23.2,2.8L512,614.2l-44.8-27.1c-7-4.2-15.4-5.2-23.2-2.8
			C401.4,597.8,262,647.9,262,723.8c0,15.6,12.6,28.2,28.2,28.2h443.5c15.6,0,28.2-12.6,28.2-28.2
			C762,647.9,622.6,597.8,579.9,584.3z"/>
	</g>
	<g class="st1">
		<polygon id="XMLID_5_" points="176,176 320,176 320,128 128,128 128,320 176,320 		"/>
		<polygon id="XMLID_4_" points="848,128 704,128 704,176 848,176 848,320 896,320 896,128 		"/>
		<polygon id="XMLID_3_" points="848,848 704,848 704,896 896,896 896,704 848,704 		"/>
		<polygon id="XMLID_2_" points="176,704 128,704 128,896 320,896 320,848 176,848 		"/>
		<path id="XMLID_1_" d="M176,704"/>
	</g>
</g>
<g id="XMLID_23_" class="st0">
	<path id="XMLID_12_" class="st1" d="M512,224c-158.4,0-288,129.6-288,288s129.6,288,288,288s288-129.6,288-288S670.4,224,512,224
		L512,224z M700.5,666.2L357.8,323.5c41.6-36.7,95.5-56.3,154.2-56.3c134.6,0,244.8,110.2,244.8,244.8
		C756.8,570.8,737.2,624.6,700.5,666.2L700.5,666.2z M512,756.8c-134.6,0-244.8-110.2-244.8-244.8c0-58.8,19.6-112.6,56.3-154.2
		l345.2,345.2C624.6,737.2,570.8,756.8,512,756.8L512,756.8z"/>
	<path id="XMLID_22_" class="st1" d="M704,896v-48h144V704h48v192H704z M848,176H704v-48h144h48v192h-48V176z M678,476.3l-12.3,2.1
		c4,7.8,6.3,16.7,6.3,27l4.6,62.4c0,1.5-0.1,3.1-0.3,4.7c0.2,1,0.3,2,0.3,3v64c0,4.4-1.8,8.6-4.8,11.7c-3.1,3.1-7.3,4.8-11.7,4.8
		h-25.2c-9.1,0-16.5-7.4-16.5-16.5v-20.6H402v20.6c0,9.1-7.4,16.5-16.5,16.5h-25.2c-9.1,0-16.5-7.4-16.5-16.5v-64c0-1,0.1-2,0.3-3
		c-0.2-1.5-0.3-3.1-0.3-4.6l4.6-62.4c-0.1-9.4,2-18.6,6.2-26.9l-12.6-2.1c-5.1,0-9.2-4.1-9.2-9.2v-8c0-2.5,1-4.8,2.7-6.6
		c1.7-1.7,4.1-2.7,6.5-2.7h33.2c1.6,0,3.2,0.5,4.6,1.3l15-45.2c4.1-21.4,19.6-38,45-38h140.5c22.2,0,40.2,12.3,45,38l15,45.1
		c1.3-0.7,2.8-1.2,4.3-1.2h33.2c2.5,0,4.8,1,6.6,2.7c1.7,1.7,2.7,4.1,2.7,6.5v8c0,2.4-1,4.8-2.7,6.5
		C682.8,475.4,680.4,476.3,678,476.3z M469.2,570.2c0,4.1,3.3,7.4,7.4,7.4h70c2,0,3.9-0.7,5.3-2.1c1.4-1.4,2.2-3.3,2.2-5.3h0v-20.9
		c0-4.1-3.3-7.4-7.5-7.4h-70.1c-4,0-7.4,3.3-7.4,7.4V570.2z M392.9,551.2c-4.5,7.7-4.5,17.2,0,25c4.5,7.7,12.7,12.5,21.6,12.5
		c13.8,0,25-11.2,25-25c0-13.8-11.2-25-25-25C405.7,538.7,397.4,543.4,392.9,551.2z M615.2,440.4l-11.2-30c-1-5.5-3.3-6.8-6.9-11.4
		h-172c-3.6,4.6-6,5.6-7.1,11.5l-0.2,0.7l-11,29.3l-4.1,16.3C403.7,468.5,418,478,430,478H592c11.9,0,26.3-9.4,27.2-21.3
		L615.2,440.4z M607.5,538.7c-8.9,0-17.2,4.8-21.6,12.5c-4.5,7.7-4.5,17.2,0,25c4.5,7.7,12.7,12.5,21.6,12.5c13.8,0,25-11.2,25-25
		C632.5,549.9,621.3,538.7,607.5,538.7z M128,704h48v144h144v48H128V704z M176,320h-48V128h192v48H176V320z"/>
</g>
</svg>
