<?xml version="1.0" encoding="utf-8"?>
<!-- Generator: Adobe Illustrator 19.0.0, SVG Export Plug-In . SVG Version: 6.00 Build 0)  -->
<svg version="1.1" id="图层_1" xmlns="http://www.w3.org/2000/svg" xmlns:xlink="http://www.w3.org/1999/xlink" x="0px" y="0px"
	 viewBox="0 0 1024 1024" style="enable-background:new 0 0 1024 1024;" xml:space="preserve">
<style type="text/css">
	.st1{fill:#B7B7B7;}
	.st2{font-family:'MicrosoftYaHei-Bold';}
	.st3{font-size:92px;}
	.st4{letter-spacing:14;}
</style>
<path class="st0" d="M188.6,168.4h646.7c16.1,0,31.5,6.4,42.9,17.8c11.4,11.4,17.8,26.8,17.8,42.9v565.9c0,16.1-6.4,31.5-17.8,42.9
	c-11.4,11.4-26.8,17.8-42.9,17.8H188.6c-16.1,0-31.5-6.4-42.9-17.8C134.4,826.4,128,811,128,794.9V229.1
	C128,195.6,155.1,168.4,188.6,168.4L188.6,168.4z M260.7,279.6c-33.1,0-59.9,26.1-60,58.5c0,32.3,26.9,58.5,60,58.5
	c33.1,0,60-26.2,60-58.5C320.7,305.7,293.8,279.6,260.7,279.6L260.7,279.6z M194.4,770.3h613.9L611,507.8L457.5,700.1L347.9,571.9
	L194.4,770.3z"/>
<text id="XMLID_4_" transform="matrix(1 0 0 1 378.744 369.3256)" class="st1 st2 st3 st4">暂无图片</text>
</svg>
