<?xml version="1.0" encoding="utf-8"?>
<!-- Generator: Adobe Illustrator 19.0.0, SVG Export Plug-In . SVG Version: 6.00 Build 0)  -->
<svg version="1.1" id="图层_1" xmlns="http://www.w3.org/2000/svg" xmlns:xlink="http://www.w3.org/1999/xlink" x="0px" y="0px"
	 viewBox="0 0 1024 1024" style="enable-background:new 0 0 1024 1024;" xml:space="preserve">
<style type="text/css">
	.st0{display:none;}
	.st1{display:inline;}
</style>
<g id="XMLID_34_" class="st0">
	<g class="st1">
		<polygon points="502.9,379.7 505.6,379.7 505.6,378.8 502.1,378.8 502.1,382.3 502.9,382.3 		"/>
		<polygon points="515.2,378.8 512.6,378.8 512.6,379.7 515.2,379.7 515.2,382.3 516.1,382.3 516.1,378.8 		"/>
		<polygon points="515.2,392 512.6,392 512.6,392.8 516.1,392.8 516.1,389.3 515.2,389.3 		"/>
		<polygon points="502.9,389.3 502.1,389.3 502.1,392.8 505.6,392.8 505.6,392 502.9,392 		"/>
		<path d="M502.9,389.3"/>
	</g>
	<g class="st1">
		<path d="M507.8,381c0,0.7,0.6,1.3,1.3,1.3c0.7,0,1.3-0.6,1.3-1.3s-0.6-1.3-1.3-1.3C508.3,379.7,507.8,380.3,507.8,381L507.8,381z
			 M513.7,382.8h-9.2c-0.4,0-0.7,0.3-0.7,0.7c0,0.4,0.3,0.7,0.7,0.7h2.7c0.2,0,0.4,0.1,0.5,0.4c0.1,0.3,0.1,0.9,0,1.4l-0.1,0.6
			c0,0,0,0,0,0l-0.8,4.7c-0.1,0.4,0.2,0.7,0.5,0.8c0.4,0.1,0.7-0.2,0.8-0.5l0.6-3.3v0c0,0,0.2-0.9,0.5-0.9h0c0.3,0,0.5,0.9,0.5,0.9
			v0l0.6,3.3c0.1,0.4,0.4,0.6,0.8,0.5c0.4-0.1,0.6-0.4,0.5-0.8l-0.8-4.7v0c0,0,0,0,0,0l-0.1-0.6c-0.1-0.5-0.1-1.1,0-1.4
			c0.1-0.3,0.3-0.4,0.5-0.4h2.7c0.4,0,0.7-0.3,0.7-0.7C514.3,383.1,514,382.8,513.7,382.8L513.7,382.8z M513.7,382.8"/>
	</g>
</g>
<g id="XMLID_35_" class="st0">
	<path class="st1" d="M537.4,384h-1c0,0-0.1,0-0.1,0l-0.4-1.3c-0.1-0.8-0.7-1.1-1.3-1.1h-4.2c-0.8,0-1.2,0.5-1.3,1.1l-0.4,1.3
		c0,0-0.1,0-0.1,0h-1c-0.1,0-0.1,0-0.2,0.1c-0.1,0.1-0.1,0.1-0.1,0.2v0.2c0,0.2,0.1,0.3,0.3,0.3l0.4,0.1c-0.1,0.2-0.2,0.5-0.2,0.8
		l-0.1,1.8c0,0,0,0.1,0,0.1c0,0,0,0.1,0,0.1v1.9c0,0.3,0.2,0.5,0.5,0.5h0.7c0.3,0,0.5-0.2,0.5-0.5V389h6.4v0.6
		c0,0.3,0.2,0.5,0.5,0.5h0.7c0.1,0,0.3-0.1,0.3-0.1c0.1-0.1,0.1-0.2,0.1-0.3v-1.9c0,0,0-0.1,0-0.1c0,0,0-0.1,0-0.1l-0.1-1.8
		c0-0.3-0.1-0.6-0.2-0.8l0.4-0.1c0.1,0,0.1,0,0.2-0.1c0.1-0.1,0.1-0.1,0.1-0.2v-0.2c0-0.1,0-0.1-0.1-0.2
		C537.6,384,537.5,384,537.4,384L537.4,384z M535.3,388.1c-0.3,0-0.5-0.1-0.6-0.4s-0.1-0.5,0-0.7s0.4-0.4,0.6-0.4
		c0.4,0,0.7,0.3,0.7,0.7C536.1,387.8,535.7,388.1,535.3,388.1L535.3,388.1z M533.7,387.6c0,0.1,0,0.1-0.1,0.2s-0.1,0.1-0.2,0.1h-2.1
		c-0.1,0-0.2-0.1-0.2-0.2v-0.6c0-0.1,0.1-0.2,0.2-0.2h2.1c0.1,0,0.2,0.1,0.2,0.2L533.7,387.6L533.7,387.6z M529.6,388.1
		c-0.3,0-0.5-0.1-0.6-0.4c-0.1-0.2-0.1-0.5,0-0.7c0.1-0.2,0.4-0.4,0.6-0.4c0.4,0,0.7,0.3,0.7,0.7C530.4,387.8,530,388.1,529.6,388.1
		L529.6,388.1z M529.4,383.7l0.3-0.9l0,0c0-0.2,0.1-0.2,0.2-0.3h5.1c0.1,0.1,0.2,0.2,0.2,0.3l0.3,0.9l0.1,0.5c0,0.4-0.5,0.6-0.8,0.6
		h-4.8c-0.4,0-0.8-0.3-0.8-0.6L529.4,383.7z M529.4,383.7"/>
	<g class="st1">
		<polygon points="526.3,379.7 528.9,379.7 528.9,378.8 525.4,378.8 525.4,382.3 526.3,382.3 		"/>
		<polygon points="538.6,378.8 535.9,378.8 535.9,379.7 538.6,379.7 538.6,382.3 539.4,382.3 539.4,378.8 		"/>
		<polygon points="538.6,392 535.9,392 535.9,392.8 539.4,392.8 539.4,389.3 538.6,389.3 		"/>
		<polygon points="526.3,389.3 525.4,389.3 525.4,392.8 528.9,392.8 528.9,392 526.3,392 		"/>
		<path d="M526.3,389.3"/>
	</g>
</g>
<g id="XMLID_33_" class="st0">
	<g class="st1">
		<circle id="XMLID_320_" cx="486.1" cy="384.2" r="2.7"/>
		<path id="XMLID_317_" d="M487.4,387.2c-0.1,0-0.3,0-0.4,0.1l-0.8,0.5l-0.8-0.5c-0.1-0.1-0.3-0.1-0.4-0.1c-0.8,0.2-3.3,1.2-3.3,2.5
			c0,0.3,0.2,0.5,0.5,0.5h8.1c0.3,0,0.5-0.2,0.5-0.5C490.7,388.3,488.2,387.4,487.4,387.2z"/>
	</g>
	<g class="st1">
		<polygon points="480,379.7 482.6,379.7 482.6,378.8 479.1,378.8 479.1,382.3 480,382.3 		"/>
		<polygon points="492.3,378.8 489.6,378.8 489.6,379.7 492.3,379.7 492.3,382.3 493.1,382.3 493.1,378.8 		"/>
		<polygon points="492.3,392 489.6,392 489.6,392.8 493.1,392.8 493.1,389.3 492.3,389.3 		"/>
		<polygon points="480,389.3 479.1,389.3 479.1,392.8 482.6,392.8 482.6,392 480,392 		"/>
		<path d="M480,389.3"/>
	</g>
</g>
<g id="XMLID_23_">
	<path id="XMLID_12_" d="M512,224c-158.4,0-288,129.6-288,288s129.6,288,288,288s288-129.6,288-288S670.4,224,512,224L512,224z
		 M700.5,666.2L357.8,323.5c41.6-36.7,95.5-56.3,154.2-56.3c134.6,0,244.8,110.2,244.8,244.8C756.8,570.8,737.2,624.6,700.5,666.2
		L700.5,666.2z M512,756.8c-134.6,0-244.8-110.2-244.8-244.8c0-58.8,19.6-112.6,56.3-154.2l345.2,345.2
		C624.6,737.2,570.8,756.8,512,756.8L512,756.8z"/>
	<path id="XMLID_22_" d="M704,896v-48h144V704h48v192H704z M848,176H704v-48h144h48v192h-48V176z M678,476.3l-12.3,2.1
		c4,7.8,6.3,16.7,6.3,27l4.6,62.4c0,1.5-0.1,3.1-0.3,4.7c0.2,1,0.3,2,0.3,3v64c0,4.4-1.8,8.6-4.8,11.7c-3.1,3.1-7.3,4.8-11.7,4.8
		h-25.2c-9.1,0-16.5-7.4-16.5-16.5v-20.6H402v20.6c0,9.1-7.4,16.5-16.5,16.5h-25.2c-9.1,0-16.5-7.4-16.5-16.5v-64c0-1,0.1-2,0.3-3
		c-0.2-1.5-0.3-3.1-0.3-4.6l4.6-62.4c-0.1-9.4,2-18.6,6.2-26.9l-12.6-2.1c-5.1,0-9.2-4.1-9.2-9.2v-8c0-2.5,1-4.8,2.7-6.6
		c1.7-1.7,4.1-2.7,6.5-2.7h33.2c1.6,0,3.2,0.5,4.6,1.3l15-45.2c4.1-21.4,19.6-38,45-38h140.5c22.2,0,40.2,12.3,45,38l15,45.1
		c1.3-0.7,2.8-1.2,4.3-1.2h33.2c2.5,0,4.8,1,6.6,2.7c1.7,1.7,2.7,4.1,2.7,6.5v8c0,2.4-1,4.8-2.7,6.5
		C682.8,475.4,680.4,476.3,678,476.3z M469.2,570.2c0,4.1,3.3,7.4,7.4,7.4h70c2,0,3.9-0.7,5.3-2.1c1.4-1.4,2.2-3.3,2.2-5.3h0v-20.9
		c0-4.1-3.3-7.4-7.5-7.4h-70.1c-4,0-7.4,3.3-7.4,7.4V570.2z M392.9,551.2c-4.5,7.7-4.5,17.2,0,25c4.5,7.7,12.7,12.5,21.6,12.5
		c13.8,0,25-11.2,25-25c0-13.8-11.2-25-25-25C405.7,538.7,397.4,543.4,392.9,551.2z M615.2,440.4l-11.2-30c-1-5.5-3.3-6.8-6.9-11.4
		h-172c-3.6,4.6-6,5.6-7.1,11.5l-0.2,0.7l-11,29.3l-4.1,16.3C403.7,468.5,418,478,430,478H592c11.9,0,26.3-9.4,27.2-21.3
		L615.2,440.4z M607.5,538.7c-8.9,0-17.2,4.8-21.6,12.5c-4.5,7.7-4.5,17.2,0,25c4.5,7.7,12.7,12.5,21.6,12.5c13.8,0,25-11.2,25-25
		C632.5,549.9,621.3,538.7,607.5,538.7z M128,704h48v144h144v48H128V704z M176,320h-48V128h192v48H176V320z"/>
</g>
</svg>
